{"title":"The Lion King 3 DVDrip Dutch Klam","uid":6741929,"size":1105701388,"categoryP":"video","categoryS":"movies","magnet":"?xt=urn:btih:2c2609f02578e7f4556113987fe3e5d11b6cb278&amp;dn=The+Lion+King+3+DVDrip+Dutch+Klam&amp;tr=udp%3A%2F%2Ftracker.openbittorrent.com%3A80&amp;tr=udp%3A%2F%2Fopen.demonii.com%3A1337&amp;tr=udp%3A%2F%2Ftracker.coppersurfer.tk%3A6969&amp;tr=udp%3A%2F%2Fexodus.desync.com%3A6969","seeders":4,"leechers":0,"uploader":"Klambake","files":-1,"time":1318539349,"description":"Nederlands gesproken,\nIn een dolle bui verklappen Timon en Pumbaa een aantal geheimpjes waarmee de leeuwenkoning niet blij zou zijn. Ze vertellen ondermeer wat er ÃƒÂ©cht gebeurde toen Mufasa zijn zoon aan het volk voorstelde en het tweetal kan bovendien niet nalaten om op te scheppen over het belang van hun 'hakuna matata'-filosofie.\n\nDutch spoken,\nTimon the meerkat and Pumbaa the warthog retell the story of The Lion King, from their own unique perspective. \n\n------------------ Dutch Friends ------------------\nYou can find my Friends at: http://www.Film-Test.nl \n------ They got my dutch subs ----- and more ------\n\nGeneral:\n\nComplete name                    : The Lion King 3\\The Lion King 3.avi\nFormat                           : AVI\nFormat/Info                      : Audio Video Interleave\nFile size                        : 1.03 GiB\nDuration                         : 1h 13mn\nOverall bit rate                 : 2 015 Kbps\n\nVideo:\n\nFormat                           : MPEG-4 Visual\nFormat profile                   : Simple@L3\nFormat settings, BVOP            : No\nFormat settings, QPel            : No\nFormat settings, GMC             : No warppoints\nFormat settings, Matrix          : Default (H.263)\nCodec ID                         : XVID\nCodec ID/Hint                    : XviD\nDuration                         : 1h 13mn\nBit rate                         : 1 620 Kbps\nWidth                            : 704 pixels\nHeight                           : 424 pixels\nDisplay aspect ratio             : 1.660\nFrame rate                       : 25.000 fps\nColor space                      : YUV\nChroma subsampling               : 4:2:0\nBit depth                        : 8 bits\nScan type                        : Progressive\nCompression mode                 : Lossy\nBits/(Pixel*Frame)               : 0.217\nStream size                      : 848 MiB (80%)\nWriting library                  : XviD 1.1.2 (UTC 2006-11-01)\n\nAudio:\n\nFormat                           : AC-3\nFormat/Info                      : Audio Coding 3\nMode extension                   : CM (complete main)\nCodec ID                         : 2000\nDuration                         : 1h 13mn\nBit rate mode                    : Constant\nBit rate                         : 384 Kbps\nChannel(s)                       : 6 channels\nChannel positions                : Front: L C R, Side: L R, LFE\nSampling rate                    : 48.0 KHz\nBit depth                        : 16 bits\nCompression mode                 : Lossy\nStream size                      : 201 MiB (19%)\nAlignment                        : Aligned on interleaves\nInterleave, duration             : 32 ms (0.80 video frame)\n\n","torrent":{"xt":"urn:btih:2c2609f02578e7f4556113987fe3e5d11b6cb278","amp;dn":"The+Lion+King+3+DVDrip+Dutch+Klam","amp;tr":["udp%3A%2F%2Ftracker.openbittorrent.com%3A80","udp%3A%2F%2Fopen.demonii.com%3A1337","udp%3A%2F%2Ftracker.coppersurfer.tk%3A6969","udp%3A%2F%2Fexodus.desync.com%3A6969"],"infoHash":"2c2609f02578e7f4556113987fe3e5d11b6cb278","infoHashBuffer":{"type":"Buffer","data":[44,38,9,240,37,120,231,244,85,97,19,152,127,227,229,209,27,108,178,120]},"announce":[],"urlList":[]}}